{
	"asset":{
		"generator":"Khronos glTF Blender I/O v4.4.56",
		"version":"2.0"
	},
	"scene":0,
	"scenes":[
		{
			"name":"Scene",
			"nodes":[
				0
			]
		}
	],
	"nodes":[
		{
			"mesh":0,
			"name":"ilan-col"
		}
	],
	"materials":[
		{
			"doubleSided":true,
			"name":"Sand",
			"pbrMetallicRoughness":{
				"baseColorFactor":[
					0.3813236653804779,
					0.3613070845603943,
					0.30498749017715454,
					1
				],
				"metallicFactor":0
			}
		},
		{
			"doubleSided":true,
			"name":"Grass",
			"pbrMetallicRoughness":{
				"baseColorFactor":[
					0.04231107607483864,
					0.11443552374839783,
					0.043735072016716,
					1
				],
				"metallicFactor":0
			}
		},
		{
			"doubleSided":true,
			"name":"Stone",
			"pbrMetallicRoughness":{
				"baseColorFactor":[
					0.059510838240385056,
					0.07036016881465912,
					0.07036013901233673,
					1
				],
				"metallicFactor":0
			}
		}
	],
	"meshes":[
		{
			"name":"Landscape.001",
			"primitives":[
				{
					"attributes":{
						"POSITION":0,
						"NORMAL":1
					},
					"indices":2,
					"material":0
				},
				{
					"attributes":{
						"POSITION":3,
						"NORMAL":4
					},
					"indices":5,
					"material":1
				},
				{
					"attributes":{
						"POSITION":6,
						"NORMAL":7
					},
					"indices":8,
					"material":2
				}
			]
		}
	],
	"accessors":[
		{
			"bufferView":0,
			"componentType":5126,
			"count":24283,
			"max":[
				2,
				0.41525599360466003,
				2
			],
			"min":[
				-2,
				-9.181264637447839e-09,
				-2
			],
			"type":"VEC3"
		},
		{
			"bufferView":1,
			"componentType":5126,
			"count":24283,
			"type":"VEC3"
		},
		{
			"bufferView":2,
			"componentType":5123,
			"count":27024,
			"type":"SCALAR"
		},
		{
			"bufferView":3,
			"componentType":5126,
			"count":9672,
			"max":[
				0.920677125453949,
				0.4228258728981018,
				0.7609254121780396
			],
			"min":[
				-0.7083511352539062,
				0.21420298516750336,
				-0.947794497013092
			],
			"type":"VEC3"
		},
		{
			"bufferView":4,
			"componentType":5126,
			"count":9672,
			"type":"VEC3"
		},
		{
			"bufferView":5,
			"componentType":5123,
			"count":11178,
			"type":"SCALAR"
		},
		{
			"bufferView":6,
			"componentType":5126,
			"count":664,
			"max":[
				0.5627940893173218,
				0.3819931447505951,
				-0.03891066089272499
			],
			"min":[
				-0.502946674823761,
				0.2556079924106598,
				-0.5607962012290955
			],
			"type":"VEC3"
		},
		{
			"bufferView":7,
			"componentType":5126,
			"count":664,
			"type":"VEC3"
		},
		{
			"bufferView":8,
			"componentType":5123,
			"count":810,
			"type":"SCALAR"
		}
	],
	"bufferViews":[
		{
			"buffer":0,
			"byteLength":291396,
			"byteOffset":0,
			"target":34962
		},
		{
			"buffer":0,
			"byteLength":291396,
			"byteOffset":291396,
			"target":34962
		},
		{
			"buffer":0,
			"byteLength":54048,
			"byteOffset":582792,
			"target":34963
		},
		{
			"buffer":0,
			"byteLength":116064,
			"byteOffset":636840,
			"target":34962
		},
		{
			"buffer":0,
			"byteLength":116064,
			"byteOffset":752904,
			"target":34962
		},
		{
			"buffer":0,
			"byteLength":22356,
			"byteOffset":868968,
			"target":34963
		},
		{
			"buffer":0,
			"byteLength":7968,
			"byteOffset":891324,
			"target":34962
		},
		{
			"buffer":0,
			"byteLength":7968,
			"byteOffset":899292,
			"target":34962
		},
		{
			"buffer":0,
			"byteLength":1620,
			"byteOffset":907260,
			"target":34963
		}
	],
	"buffers":[
		{
			"byteLength":908880,
			"uri":"ilan.bin"
		}
	]
}
